<svg xmlns="http://www.w3.org/2000/svg" xmlns:xlink="http://www.w3.org/1999/xlink" width="190" height="34" viewBox="0 0 190 34"><defs><path id="w9mya" d="M137 40V23h1v17z"/><path id="w9myb" d="M125.127 28.552a3.946 3.946 0 0 0-1.293-1.482c-.54-.365-1.197-.547-1.972-.547-.367 0-.739.043-1.116.129-.377.085-.716.22-1.018.402a2.244 2.244 0 0 0-.727.693c-.183.279-.275.622-.275 1.03 0 .71.248 1.224.743 1.547.496.322 1.24.6 2.231.837l2.166.515c1.056.237 1.934.714 2.634 1.434s1.051 1.616 1.051 2.69c0 .815-.167 1.519-.501 2.11a4.287 4.287 0 0 1-1.325 1.449c-.55.375-1.18.65-1.891.821a9.191 9.191 0 0 1-2.166.258 7.988 7.988 0 0 1-3.25-.66c-1.001-.44-1.858-1.198-2.57-2.271l1.843-1.257a5.07 5.07 0 0 0 1.633 1.643c.657.408 1.438.612 2.344.612.43 0 .862-.048 1.293-.145a3.765 3.765 0 0 0 1.147-.45c.334-.205.604-.468.808-.79.205-.322.308-.698.308-1.127 0-.752-.28-1.294-.84-1.627-.561-.333-1.24-.596-2.038-.79l-2.068-.482a13.9 13.9 0 0 1-1.051-.322 4.98 4.98 0 0 1-1.293-.677c-.42-.3-.781-.692-1.083-1.176-.302-.483-.453-1.079-.453-1.787 0-.773.157-1.45.47-2.03a4.005 4.005 0 0 1 1.26-1.417 5.827 5.827 0 0 1 1.794-.821 7.814 7.814 0 0 1 2.069-.274c1.056 0 2.036.204 2.942.612.905.408 1.605 1.106 2.1 2.094zm-26.564 4.542c.065.751.248 1.46.55 2.126.301.665.7 1.24 1.196 1.723a5.628 5.628 0 0 0 1.713 1.143c.646.28 1.347.42 2.101.42 1.142 0 2.128-.264 2.958-.79.83-.526 1.46-1.133 1.891-1.82l1.649 1.353c-.905 1.138-1.902 1.954-2.99 2.448a8.387 8.387 0 0 1-3.508.74c-1.12 0-2.16-.198-3.12-.595a7.308 7.308 0 0 1-2.472-1.659 7.856 7.856 0 0 1-1.633-2.512c-.399-.967-.598-2.019-.598-3.157s.194-2.19.582-3.157a7.64 7.64 0 0 1 1.616-2.512 7.433 7.433 0 0 1 2.425-1.659 7.549 7.549 0 0 1 3.006-.596c1.142 0 2.166.204 3.071.612.905.408 1.665.95 2.28 1.627a6.957 6.957 0 0 1 1.405 2.383c.324.913.485 1.885.485 2.915v.967zm10.27-1.74c0-1.438-.43-2.603-1.292-3.495-.861-.89-2.067-1.336-3.617-1.336a5.17 5.17 0 0 0-2.002.402 5.638 5.638 0 0 0-1.696 1.08 5.413 5.413 0 0 0-1.162 1.546 3.977 3.977 0 0 0-.436 1.803zM79.08 24.977c.044.408.07.81.081 1.208.011.397.016.8.016 1.207h.065c.237-.408.54-.783.906-1.127a5.964 5.964 0 0 1 1.23-.886c.452-.247.932-.44 1.439-.58a5.647 5.647 0 0 1 1.504-.209c1.941 0 3.376.51 4.303 1.53s1.391 2.475 1.391 4.365v9.566H87.88V31.71c0-1.675-.291-2.958-.874-3.85-.582-.89-1.66-1.336-3.235-1.336-.107 0-.41.043-.905.129-.497.085-1.02.322-1.57.708-.55.387-1.04.967-1.472 1.74-.43.773-.647 1.846-.647 3.22v7.731h-2.135V28.294c0-.408-.016-.923-.048-1.546a70.51 70.51 0 0 0-.113-1.771zM69.842 40.05H67.71V24.977h2.133zm.495-20.872c0 .45-.162.821-.486 1.111-.325.29-.682.435-1.07.435-.39 0-.747-.145-1.07-.435a1.424 1.424 0 0 1-.487-1.111c0-.451.162-.822.486-1.112.324-.29.681-.434 1.07-.434.39 0 .746.145 1.07.434.325.29.487.66.487 1.112zM60.024 40.05H57.89V15.7h2.134z"/><path id="w9myd" d="M22.913 33.094c.065.751.248 1.46.55 2.125.301.666.7 1.24 1.195 1.724a5.628 5.628 0 0 0 1.714 1.143c.646.28 1.347.419 2.101.419 1.142 0 2.128-.263 2.958-.79.83-.525 1.46-1.132 1.891-1.82l1.649 1.354c-.905 1.138-1.902 1.954-2.99 2.448a8.387 8.387 0 0 1-3.508.74c-1.12 0-2.16-.198-3.12-.595a7.308 7.308 0 0 1-2.472-1.66 7.856 7.856 0 0 1-1.633-2.512c-.399-.966-.598-2.018-.598-3.156 0-1.138.194-2.19.582-3.157a7.64 7.64 0 0 1 1.616-2.512 7.433 7.433 0 0 1 2.425-1.66 7.549 7.549 0 0 1 3.006-.595c1.142 0 2.166.204 3.071.612.905.408 1.665.95 2.28 1.627a6.957 6.957 0 0 1 1.405 2.383c.324.913.485 1.885.485 2.915v.967zm10.27-1.74c0-1.439-.43-2.603-1.292-3.495-.861-.89-2.067-1.336-3.617-1.336a5.17 5.17 0 0 0-2.002.402 5.638 5.638 0 0 0-1.696 1.08 5.413 5.413 0 0 0-1.163 1.545 3.977 3.977 0 0 0-.435 1.804z"/><path id="w9mye" d="M51.9 26.526l-8.857 11.596h9.181v.008H69.84v1.92H52.224v.005H39.94v-1.547l8.857-11.595h-8.404V24.98H51.9z"/><path id="w9myf" d="M56.82 49v-1.79H152V49z"/><clipPath id="w9myc"><use fill="#fff" xlink:href="#w9mya"/></clipPath></defs><g><g transform="translate(-20 -15)"><g><use fill="#0074e4" xlink:href="#w9myb"/></g><g><use fill="#d8d8d8" xlink:href="#w9mya"/><use fill="#fff" fill-opacity="0" stroke="#979797" stroke-miterlimit="50" stroke-width="2" clip-path="url(&quot;#w9myc&quot;)" xlink:href="#w9mya"/></g><g/><g><g><use fill="#8c9093" xlink:href="#w9myd"/></g><g><use fill="#8c9093" xlink:href="#w9mye"/></g></g><g><use fill="#8c9093" xlink:href="#w9myf"/></g></g></g></svg>